<svg xmlns="http://www.w3.org/2000/svg" viewBox="0 0 140 100" width="32" height="32">
  <defs>
    <linearGradient id="bodyGrad" x1="0%" y1="0%" x2="100%" y2="100%">
      <stop offset="0%" stop-color="#333" />
      <stop offset="100%" stop-color="#121212" />
    </linearGradient>
    <radialGradient id="shine" cx="45%" cy="28%" r="55%">
      <stop offset="0%" stop-color="#ffffff" stop-opacity="0.18" />
      <stop offset="100%" stop-color="#000000" stop-opacity="0" />
    </radialGradient>
    <style>
      .body { fill: url(#bodyGrad); stroke: #111; stroke-width: 1; }
      .shine { fill: url(#shine); }
      .stick-ring { fill: #444; stroke: #666; stroke-width: 1; }
      .stick-center { fill: #0f0f0f; }
      .dpad { fill: #4e4e4e; }
      .face-a { fill: #42c94e; stroke: #111; stroke-width: 0.5; }
      .face-b { fill: #ef3f4b; stroke: #111; stroke-width: 0.5; }
      .face-x { fill: #4978f0; stroke: #111; stroke-width: 0.5; }
      .face-y { fill: #f5d835; stroke: #111; stroke-width: 0.5; }
      .center { fill: #151515; stroke: #111; stroke-width: 0.8; }
      .trigger { fill: #161616; stroke: #0d0d0d; stroke-width: 0.6; }
      .detail { fill: none; stroke: #555; stroke-width: 0.8; opacity: 0.6; }
      .cable { fill: none; stroke: #111; stroke-width: 2; stroke-linecap: round; }
    </style>
  </defs>

  <!-- Cable clásico -->
  <path class="cable" d="M70,22 C70,10 68,8 60,8 C52,8 50,10 50,18 C50,26 52,28 56,30 C60,32 62,36 62,40" />

  <!-- Base clásica Xbox -->
  <path class="body" d="M20,55 C16,34 30,32 40,32 H100 C110,32 124,34 120,55 C116,76 100,78 84,79 H56 C40,78 24,76 20,55 Z"/>
  <path class="shine" d="M22,55 C18,34 32,32 42,32 H98 C108,32 122,34 118,55 C114,76 98,78 82,79 H58 C42,78 26,76 22,55 Z"/>

  <!-- Sticks -->
  <g>
    <circle class="stick-ring" cx="42" cy="41" r="8" />
    <circle class="stick-center" cx="42" cy="41" r="4" />
  </g>
  <g>
    <circle class="stick-ring" cx="95" cy="41" r="8" />
    <circle class="stick-center" cx="95" cy="41" r="4" />
  </g>

  <!-- D-pad clásico -->
  <g class="dpad">
    <rect x="16" y="39" width="5" height="14" rx="2" />
    <rect x="12" y="44" width="14" height="5" rx="2" />
  </g>

  <!-- Botones A/B/X/Y clásicos -->
  <circle cx="98" cy="27" r="5" class="face-a" />
  <circle cx="112" cy="35" r="5" class="face-b" />
  <circle cx="84" cy="27" r="5" class="face-x" />
  <circle cx="98" cy="19" r="5" class="face-y" />

  <!-- Círculo central Xbox -->
  <circle cx="68" cy="37" r="6" class="center" />
  <circle cx="68" cy="37" r="2" fill="#8c8c8c" />

  <!-- Gatillos clásicos -->
  <rect x="10" y="39" width="10" height="4" rx="2" class="trigger" />
  <rect x="119" y="39" width="10" height="4" rx="2" class="trigger" />

  <!-- Sombras y detalles -->
  <path class="detail" d="M28,34 C38,28 48,28 60,34" />
  <path class="detail" d="M70,34 C82,28 94,28 106,34" />
</svg>
